<!DOCTYPE svg PUBLIC "-//W3C//DTD SVG 1.1//EN" "http://www.w3.org/Graphics/SVG/1.1/DTD/svg11.dtd">
<!-- Uploaded to: SVG Repo, www.svgrepo.com, Transformed by: SVG Repo Mixer Tools -->
<svg version="1.1" id="Icons" xmlns="http://www.w3.org/2000/svg" xmlns:xlink="http://www.w3.org/1999/xlink" viewBox="0 0 32 32" xml:space="preserve" width="800px" height="800px" fill="#f5deb3">
<g id="SVGRepo_bgCarrier" stroke-width="0"/>
<g id="SVGRepo_tracerCarrier" stroke-linecap="round" stroke-linejoin="round"/>
<g id="SVGRepo_iconCarrier"> <style type="text/css"> .st0{fill:none;stroke:#000000;stroke-width:2;stroke-linecap:round;stroke-linejoin:round;stroke-miterlimit:10;} </style> <g> <path d="M16,2C9.9,2,5,6.9,5,13s4.9,11,11,11s11-4.9,11-11S22.1,2,16,2z M16,4c2.8,0,5.4,1.3,7,3.4c-4.6-0.9-9.4-0.9-14,0 C10.7,5.3,13.2,4,16,4z M7,13.2c2.7,1.7,4.5,4.6,4.9,7.8C9,19.5,7.1,16.6,7,13.2z M16,16c-1.7,0-3-1.3-3-3s1.3-3,3-3s3,1.3,3,3 S17.7,16,16,16z M20.1,21c0.4-3.2,2.2-6.1,4.9-7.8C24.9,16.6,23,19.5,20.1,21z"/> </g> <path d="M24,26.1l-1.5-1.8C20.6,25.4,18.4,26,16,26c-2.4,0-4.6-0.6-6.5-1.8L8,26.1c-0.8,0.9-0.9,2.1-0.4,3.2S9.1,31,10.3,31h11.5 c1.2,0,2.2-0.7,2.7-1.7S24.8,27,24,26.1C24,26.1,24,26.1,24,26.1z"/> </g>
</svg>